<svg width="134" height="160" viewBox="0 0 134 160" fill="none" xmlns="http://www.w3.org/2000/svg">
<g style="mix-blend-mode:plus-darker" opacity="0.29">
<path d="M15.8514 75.9022C23.9942 69.882 32.9011 65.0266 42.3258 61.4703C40.1728 67.6485 39.5016 74.2658 40.3688 80.765C41.2359 87.2642 43.616 93.455 47.3087 98.8162C51.0013 104.177 55.8984 108.552 61.5876 111.571C67.2768 114.591 73.5915 116.167 80 116.167C86.4085 116.167 92.7232 114.591 98.4124 111.571C104.102 108.552 108.999 104.177 112.691 98.8162C116.384 93.455 118.764 87.2642 119.631 80.765C120.498 74.2658 119.827 67.6485 117.674 61.4703C127.099 65.0271 136.006 69.8825 144.149 75.9022C145.214 76.6885 146.42 77.2524 147.698 77.5615C148.977 77.8707 150.302 77.9192 151.598 77.7041C152.895 77.4891 154.137 77.0148 155.255 76.3082C156.372 75.6017 157.343 74.6769 158.111 73.5864C158.879 72.496 159.43 71.2614 159.732 69.953C160.034 68.6447 160.081 67.2883 159.871 65.9612C159.661 64.6342 159.198 63.3625 158.507 62.2187C157.817 61.075 156.914 60.0816 155.848 59.2952C147.193 52.9108 137.807 47.6344 127.899 43.5839L136.149 29.0496C136.906 27.8858 137.422 26.5756 137.666 25.1998C137.909 23.8239 137.874 22.4116 137.564 21.05C137.253 19.6883 136.674 18.4063 135.86 17.2828C135.047 16.1594 134.018 15.2184 132.836 14.5179C131.653 13.8174 130.343 13.3722 128.987 13.2099C127.63 13.0476 126.255 13.1716 124.947 13.5742C123.638 13.9767 122.425 14.6494 121.38 15.5506C120.336 16.4518 119.483 17.5625 118.874 18.8142L108.274 37.417C102.258 36.0153 96.1505 35.0576 89.9998 34.5511V11.1376C89.9998 8.42303 88.9462 5.81962 87.0709 3.90011C85.1956 1.98059 82.6521 0.902222 80 0.902222C77.3479 0.902222 74.8044 1.98059 72.9291 3.90011C71.0538 5.81962 70.0002 8.42303 70.0002 11.1376V34.5511C63.8507 35.0406 57.7435 35.9813 51.7256 37.3659L41.1509 18.8142C40.542 17.5625 39.6891 16.4518 38.6447 15.5506C37.6003 14.6494 36.3865 13.9767 35.0783 13.5742C33.7701 13.1716 32.3952 13.0476 31.0384 13.2099C29.6817 13.3722 28.3717 13.8174 27.1895 14.5179C26.0072 15.2184 24.9778 16.1594 24.1645 17.2828C23.3513 18.4063 22.7716 19.6883 22.4611 21.05C22.1507 22.4116 22.1161 23.8239 22.3595 25.1998C22.6028 26.5756 23.119 27.8858 23.8762 29.0496L32.1261 43.5327C22.2083 47.5892 12.8135 52.8742 4.15167 59.2697C3.08634 60.056 2.18276 61.0494 1.49251 62.1931C0.802262 63.3369 0.338864 64.6086 0.128776 65.9356C-0.0813115 67.2627 -0.0339754 68.6191 0.268081 69.9275C0.570138 71.2358 1.121 72.4704 1.88922 73.5608C2.65743 74.6513 3.62796 75.5761 4.74538 76.2827C5.8628 76.9892 7.10524 77.4635 8.40175 77.6785C9.69826 77.8936 11.0235 77.8451 12.3017 77.5359C13.5799 77.2268 14.7861 76.6629 15.8514 75.8766V75.9022ZM80 95.5798C76.0445 95.5798 72.1778 94.3792 68.8888 92.1298C65.5999 89.8804 63.0365 86.6833 61.5228 82.9428C60.0091 79.2022 59.613 75.0862 60.3847 71.1153C61.1564 67.1443 63.0612 63.4968 65.8582 60.6339C68.6552 57.771 72.2188 55.8213 76.0983 55.0315C79.9778 54.2416 83.9991 54.647 87.6535 56.1964C91.3079 57.7458 94.4314 60.3696 96.629 63.736C98.8266 67.1024 99.9996 71.0602 99.9996 75.1089C99.9996 80.5381 97.8925 85.745 94.1418 89.584C90.3912 93.423 85.3042 95.5798 80 95.5798Z" fill="#CA7D7D"/>
<path d="M60.3921 160C66.0233 160 70.5882 155.639 70.5882 150.259C70.5882 144.88 66.0233 140.519 60.3921 140.519C54.761 140.519 50.196 144.88 50.196 150.259C50.196 155.639 54.761 160 60.3921 160Z" fill="#CA7D7D"/>
<path d="M99.6078 160C105.239 160 109.804 155.639 109.804 150.259C109.804 144.88 105.239 140.519 99.6078 140.519C93.9767 140.519 89.4117 144.88 89.4117 150.259C89.4117 155.639 93.9767 160 99.6078 160Z" fill="#CA7D7D"/>
<path d="M140.392 160C146.023 160 150.588 155.639 150.588 150.259C150.588 144.88 146.023 140.519 140.392 140.519C134.761 140.519 130.196 144.88 130.196 150.259C130.196 155.639 134.761 160 140.392 160Z" fill="#CA7D7D"/>
<path d="M19.6078 160C25.239 160 29.8039 155.639 29.8039 150.259C29.8039 144.88 25.239 140.519 19.6078 140.519C13.9767 140.519 9.41174 144.88 9.41174 150.259C9.41174 155.639 13.9767 160 19.6078 160Z" fill="#CA7D7D"/>
</g>
</svg>
