<svg width="82" height="82" viewBox="0 0 82 82" fill="none" xmlns="http://www.w3.org/2000/svg">
<path d="M3.71769 30.4199L4.92969 30.641L4.40962 33.4919L12.8385 35.0295L12.6074 36.2966L4.17847 34.759L3.66091 37.5962L2.44891 37.3751L3.71769 30.4199ZM8.53573 25.5591C8.87039 24.809 9.37715 24.3146 10.056 24.0758C10.7264 23.8332 11.4664 23.8926 12.2761 24.2539L16.2012 26.0051L15.7049 27.1174L11.8438 25.3947C11.3238 25.1627 10.8605 25.1246 10.4537 25.2804C10.0384 25.4324 9.72049 25.7555 9.49992 26.2499C9.25273 26.8039 9.22781 27.3293 9.42515 27.8262C9.61398 28.3193 10.0664 28.7255 10.7823 29.045L14.1704 30.5566L13.6741 31.6689L4.72452 27.6759L5.2208 26.5636L8.69836 28.1151C8.17542 27.3402 8.12121 26.4881 8.53573 25.5591ZM19.9329 19.9859C20.0253 20.9914 19.7459 21.891 19.0946 22.6847C18.4433 23.4783 17.6156 23.9279 16.6113 24.0335C15.613 24.1319 14.7134 23.8525 13.9126 23.1953C13.1117 22.5381 12.6621 21.7103 12.5637 20.712C12.4713 19.7065 12.7507 18.8069 13.402 18.0132C14.0533 17.2196 14.881 16.77 15.8852 16.6644C16.8895 16.5588 17.792 16.8346 18.5929 17.4918C19.3938 18.149 19.8404 18.9804 19.9329 19.9859ZM18.1747 21.9298C18.6188 21.3887 18.8078 20.7831 18.7418 20.1132C18.6758 19.4433 18.3686 18.8833 17.8202 18.4334C17.2719 17.9834 16.6628 17.7914 15.9929 17.8574C15.3229 17.9234 14.7659 18.227 14.3219 18.7681C13.8838 19.302 13.6977 19.9039 13.7637 20.5739C13.8297 21.2438 14.1369 21.8037 14.6852 22.2537C15.2336 22.7037 15.8427 22.8957 16.5126 22.8297C17.1825 22.7637 17.7366 22.4637 18.1747 21.9298ZM19.5978 14.6319C19.7632 14.8462 20.0044 14.9371 20.3213 14.9046C20.6325 14.8648 20.9709 14.7686 21.3366 14.616C21.6965 14.456 22.0678 14.3108 22.4506 14.1804C22.8276 14.0426 23.2174 14.0128 23.6198 14.0912C24.0166 14.1622 24.3604 14.3861 24.6513 14.7628C25.0392 15.2652 25.1543 15.819 24.9966 16.4242C24.8463 17.0237 24.4683 17.5573 23.8625 18.025C23.3232 18.4414 22.7702 18.6797 22.2035 18.7399C21.6369 18.8001 21.1211 18.6972 20.6563 18.4311L21.1195 17.3129C21.4135 17.5104 21.7422 17.5926 22.1058 17.5595C22.4694 17.5264 22.8211 17.3787 23.1609 17.1163C23.4786 16.8711 23.6952 16.6095 23.8108 16.3316C23.9207 16.0463 23.8758 15.7743 23.6762 15.5158C23.5108 15.3015 23.2724 15.2143 22.9612 15.2541C22.6443 15.2866 22.3059 15.3828 21.946 15.5428C21.5803 15.6954 21.2062 15.8369 20.8234 15.9673C20.4407 16.0978 20.0509 16.1275 19.6541 16.0565C19.2574 15.9855 18.9164 15.7653 18.6312 15.3959C18.2604 14.9158 18.14 14.3779 18.2698 13.7824C18.407 13.1813 18.7563 12.6639 19.3178 12.2304C19.7684 11.8825 20.2472 11.6779 20.7541 11.6167C21.2627 11.5423 21.7454 11.6177 22.2022 11.8428L21.7441 12.9217C21.1796 12.6029 20.6018 12.6717 20.0108 13.128C19.7375 13.3391 19.5561 13.5852 19.4667 13.8665C19.3716 14.1404 19.4153 14.3955 19.5978 14.6319ZM26.0311 13.0181C26.4005 13.5371 26.8606 13.861 27.4113 13.9898C27.9706 14.1148 28.5518 14.0401 29.155 13.7657C29.9961 13.3832 30.4668 12.7948 30.567 12.0007L31.7535 12.107C31.5699 13.3491 30.8537 14.2542 29.6049 14.8223C28.5939 15.2822 27.6268 15.3427 26.7037 15.0038C25.7852 14.6526 25.1056 13.9927 24.6651 13.0242C24.2284 12.0642 24.1752 11.1246 24.5056 10.2053C24.836 9.286 25.4939 8.60222 26.4794 8.15395C27.4139 7.72886 28.325 7.71433 29.2126 8.11036C30.1049 8.49402 30.7616 9.14887 31.1829 10.0749C31.2563 10.2363 31.3189 10.4078 31.3707 10.5893L26.0311 13.0181ZM26.9547 9.19892C26.36 9.46943 25.9446 9.86348 25.7083 10.3811C25.4682 10.8902 25.429 11.4463 25.5906 12.0496L29.8469 10.1135C29.4791 9.5528 29.0326 9.20224 28.5073 9.06179C27.982 8.92135 27.4645 8.96706 26.9547 9.19892ZM44.3872 5.37943L45.6609 5.35133L43.6458 12.3975L42.4001 12.425L40.6483 7.28235L39.1249 12.4972L37.8792 12.5247L35.5554 5.57425L36.8291 5.54615L38.486 10.8309L40.0203 5.47576L41.196 5.44982L42.9652 10.7461L44.3872 5.37943ZM51.7926 6.71653C52.5803 6.94909 53.1374 7.38604 53.4638 8.02738C53.7929 8.65977 53.8319 9.40115 53.5808 10.2515L52.3639 14.3736L51.1957 14.0288L52.3929 9.97379C52.5541 9.42776 52.5306 8.96344 52.3224 8.58084C52.1169 8.18928 51.7545 7.91686 51.2353 7.76359C50.6535 7.59181 50.1293 7.63657 49.6629 7.89787C49.1992 8.15022 48.8563 8.65235 48.6343 9.40427L47.5838 12.9624L46.4157 12.6176L49.1905 3.21862L50.3587 3.56349L49.2805 7.21565C49.9795 6.59485 50.8169 6.42847 51.7926 6.71653ZM58.8478 17.2226C57.8653 17.4557 56.9353 17.3056 56.0579 16.7726C55.1805 16.2395 54.6189 15.4832 54.373 14.5038C54.1351 13.5293 54.2851 12.5993 54.8231 11.714C55.361 10.8286 56.1172 10.2669 57.0918 10.029C58.0743 9.79599 59.0043 9.94601 59.8817 10.4791C60.7591 11.0122 61.3207 11.7684 61.5666 12.7478C61.8125 13.7272 61.6664 14.6596 61.1285 15.545C60.5905 16.4304 59.8303 16.9896 58.8478 17.2226ZM56.6758 15.7556C57.2741 16.119 57.9002 16.2209 58.5541 16.0613C59.2081 15.9017 59.7192 15.5187 60.0875 14.9125C60.4559 14.3063 60.5602 13.6762 60.4006 13.0223C60.2409 12.3683 59.862 11.8596 59.2638 11.4961C58.6735 11.1375 58.0514 11.038 57.3974 11.1976C56.7435 11.3573 56.2323 11.7402 55.864 12.3464C55.4957 12.9526 55.3913 13.5827 55.551 14.2367C55.7106 14.8906 56.0856 15.3969 56.6758 15.7556ZM71.0608 21.6178L71.7935 22.5907L66.2016 26.8016L65.469 25.8286L66.4307 25.1044C65.3277 25.1756 64.4281 24.7489 63.7319 23.8244C63.1423 23.0415 62.9232 22.1609 63.0743 21.1825C63.233 20.1984 63.7223 19.3976 64.5425 18.78C65.3626 18.1624 66.2637 17.9161 67.2458 18.0412C68.2354 18.1606 69.025 18.6117 69.6145 19.3946C70.3107 20.3191 70.4722 21.3016 70.099 22.342L71.0608 21.6178ZM64.7639 23.24C65.1906 23.8066 65.7373 24.1369 66.4039 24.2308C67.0779 24.3191 67.6982 24.1499 68.2649 23.7232C68.8315 23.2965 69.1618 22.7499 69.2557 22.0833C69.3571 21.4111 69.1944 20.7916 68.7677 20.225C68.3466 19.6658 67.799 19.3421 67.125 19.2538C66.4584 19.1599 65.8418 19.3263 65.2752 19.753C64.7085 20.1797 64.3745 20.7291 64.2732 21.4013C64.1793 22.0679 64.3428 22.6808 64.7639 23.24ZM72.5797 26.5159C73.536 26.5086 74.2391 26.9819 74.689 27.9358L73.5367 28.4793C73.3072 27.9271 72.9447 27.5305 72.4493 27.2895C71.9538 27.0485 71.3599 27.0912 70.6677 27.4177L67.3122 29.0003L66.7926 27.8987L73.1238 24.9126L73.6434 26.0143L72.5797 26.5159ZM71.2479 31.3387C70.6735 31.6141 70.2759 32.0122 70.0549 32.5329C69.8363 33.0626 69.8107 33.6481 69.9782 34.2893C70.2116 35.1833 70.711 35.7474 71.4764 35.9816L71.1692 37.1326C69.9766 36.7398 69.207 35.8797 68.8603 34.5522C68.5797 33.4776 68.6851 32.5144 69.1765 31.6626C69.6793 30.8175 70.4455 30.2605 71.4749 29.9917C72.4954 29.7252 73.4303 29.8332 74.2798 30.3155C75.1292 30.7979 75.6907 31.5629 75.9642 32.6104C76.2236 33.6038 76.0825 34.504 75.5408 35.311C75.0105 36.1247 74.2532 36.6601 73.2689 36.9171C73.0973 36.9619 72.9176 36.9944 72.73 37.0144L71.2479 31.3387ZM74.8535 32.9005C74.6884 32.2683 74.371 31.7917 73.9013 31.4706C73.4407 31.1472 72.8993 31.0136 72.2774 31.0699L73.4588 35.5942C74.074 35.3275 74.4956 34.9473 74.7237 34.4536C74.9517 33.96 74.9949 33.4423 74.8535 32.9005ZM69.7221 38.8545C69.7001 38.6035 69.7697 38.3819 69.9309 38.1898C70.0921 37.9976 70.2982 37.8906 70.5492 37.8686C70.8003 37.8466 71.0219 37.9162 71.214 38.0774C71.4061 38.2386 71.5132 38.4447 71.5352 38.6957C71.558 38.9561 71.4884 39.1776 71.3264 39.3605C71.1652 39.5526 70.9591 39.6597 70.708 39.6817C70.457 39.7036 70.2354 39.634 70.0433 39.4729C69.852 39.321 69.7449 39.1149 69.7221 38.8545ZM78.1675 51.9663L76.9577 51.7335L77.5055 48.8877L69.092 47.2682L69.3355 46.0034L77.749 47.6229L78.2941 44.7909L79.5039 45.0238L78.1675 51.9663ZM73.286 56.7896C72.9423 57.5356 72.4296 58.0238 71.7478 58.2544C71.0746 58.4888 70.3354 58.4205 69.5301 58.0494L65.6265 56.2508L66.1363 55.1445L69.9762 56.9139C70.4933 57.1522 70.9561 57.1959 71.3648 57.0451C71.7819 56.8981 72.1037 56.5788 72.3302 56.0872C72.5841 55.5362 72.6154 55.0111 72.4241 54.5119C72.2413 54.0166 71.7938 53.6049 71.0818 53.2768L67.7123 51.7242L68.222 50.618L77.1226 54.7192L76.6129 55.8254L73.1544 54.2318C73.6679 55.0131 73.7117 55.8657 73.286 56.7896ZM61.85 62.2391C61.7651 61.2329 62.0512 60.3354 62.7085 59.5467C63.3657 58.758 64.1968 58.3146 65.2018 58.2165C66.2008 58.1257 67.0983 58.4118 67.8942 59.075C68.6901 59.7382 69.1335 60.5693 69.2244 61.5684C69.3092 62.5746 69.0231 63.472 68.3659 64.2608C67.7086 65.0495 66.8775 65.4929 65.8725 65.5909C64.8675 65.689 63.9671 65.4064 63.1712 64.7432C62.3753 64.08 61.9349 63.2453 61.85 62.2391ZM63.6227 60.3085C63.1746 60.8463 62.981 61.4503 63.042 62.1207C63.103 62.7911 63.4059 63.3534 63.9509 63.8075C64.4958 64.2615 65.1035 64.4581 65.7739 64.3971C66.4443 64.3361 67.0035 64.0368 67.4516 63.499C67.8938 62.9684 68.0844 62.3679 68.0234 61.6975C67.9624 61.0271 67.6594 60.4648 67.1145 60.0108C66.5695 59.5567 65.9619 59.3601 65.2915 59.4211C64.6211 59.4821 64.0648 59.7779 63.6227 60.3085ZM62.1299 67.5997C61.9667 67.3838 61.7265 67.2904 61.4093 67.3195C61.0977 67.3562 60.7583 67.4489 60.3911 67.5977C60.0295 67.7539 59.6567 67.8953 59.2726 68.0218C58.8942 68.1557 58.5041 68.1814 58.1025 68.0988C57.7065 68.0237 57.365 67.7963 57.078 67.4166C56.6953 66.9102 56.586 66.3553 56.7499 65.7518C56.9064 65.1538 57.2899 64.6242 57.9005 64.1627C58.4441 63.752 58.9995 63.5194 59.5668 63.4651C60.1341 63.4107 60.6487 63.519 61.1108 63.7898L60.636 64.9032C60.3441 64.7026 60.0162 64.617 59.6523 64.6463C59.2884 64.6757 58.9352 64.8198 58.5927 65.0786C58.2725 65.3206 58.0532 65.5799 57.9347 65.8566C57.8219 66.1408 57.8639 66.4132 58.0609 66.6738C58.2241 66.8897 58.4615 66.9794 58.7731 66.9428C59.0903 66.9136 59.4297 66.8209 59.7913 66.6647C60.1585 66.5158 60.5341 66.3782 60.9182 66.2517C61.3022 66.1253 61.6923 66.0996 62.0883 66.1747C62.4843 66.2497 62.823 66.4734 63.1044 66.8458C63.4701 67.3298 63.585 67.8688 63.4491 68.4629C63.3057 69.0626 62.951 69.5763 62.3851 70.004C61.9309 70.3473 61.45 70.5469 60.9425 70.6029C60.4331 70.6719 59.9512 70.5916 59.4968 70.3618L59.9661 69.2876C60.5272 69.6123 61.1057 69.5495 61.7014 69.0993C61.9769 68.8911 62.1608 68.6468 62.2531 68.3665C62.351 68.0936 62.31 67.838 62.1299 67.5997ZM55.6735 69.1476C55.3103 68.6243 54.8541 68.2949 54.3049 68.1596C53.7472 68.028 53.1651 68.0958 52.5587 68.363C51.7131 68.7356 51.2356 69.3183 51.126 70.1112L49.9408 69.9909C50.139 68.751 50.8659 67.8544 52.1214 67.3012C53.1377 66.8533 54.1054 66.8042 55.0245 67.154C55.9388 67.5161 56.6105 68.1839 57.0395 69.1576C57.4648 70.1227 57.5069 71.0629 57.1657 71.9782C56.8245 72.8935 56.1585 73.5695 55.1677 74.006C54.2282 74.42 53.3171 74.4238 52.4342 74.0173C51.5465 73.6231 50.8976 72.9605 50.4873 72.0296C50.4158 71.8673 50.3552 71.6951 50.3056 71.513L55.6735 69.1476ZM54.7048 72.9555C55.3027 72.6921 55.7228 72.303 55.9651 71.7882C56.2112 71.282 56.257 70.7263 56.1026 70.1212L51.8236 72.0068C52.1848 72.5718 52.6272 72.9276 53.1507 73.0743C53.6743 73.2209 54.1924 73.1813 54.7048 72.9555ZM37.2258 76.572L35.9519 76.5847L38.0516 69.5633L39.2975 69.5508L40.9874 74.7142L42.5733 69.518L43.8193 69.5055L46.0594 76.4834L44.7854 76.4962L43.1921 71.1919L41.5936 76.5282L40.4176 76.54L38.7122 71.2228L37.2258 76.572ZM29.8612 75.1695C29.0754 74.9304 28.522 74.4888 28.2009 73.8448C27.877 73.2097 27.8442 72.468 28.1023 71.6198L29.3534 67.5079L30.5186 67.8624L29.2879 71.9073C29.1222 72.452 29.1418 72.9165 29.3468 73.3008C29.5491 73.6941 29.9092 73.9695 30.4271 74.1271C31.0075 74.3037 31.532 74.2633 32.0005 74.0058C32.4664 73.7573 32.8134 73.2581 33.0416 72.508L34.1215 68.9587L35.2868 69.3132L32.4341 78.6888L31.2689 78.3343L32.3773 74.6912C31.6732 75.3062 30.8344 75.4656 29.8612 75.1695ZM22.9026 64.5866C23.8877 64.3647 24.8159 64.5252 25.6872 65.0682C26.5585 65.6111 27.1116 66.3737 27.3464 67.3558C27.5732 68.3329 27.4127 69.2611 26.8648 70.1404C26.3169 71.0197 25.5544 71.5727 24.5772 71.7996C23.5921 72.0215 22.6639 71.861 21.7926 71.318C20.9213 70.775 20.3682 70.0125 20.1334 69.0304C19.8986 68.0483 20.0552 67.1176 20.6031 66.2384C21.151 65.3591 21.9175 64.8085 22.9026 64.5866ZM25.0578 66.0781C24.4637 65.7079 23.8388 65.5989 23.1831 65.7512C22.5274 65.9034 22.012 66.2805 21.6368 66.8826C21.2617 67.4846 21.1502 68.1134 21.3024 68.7692C21.4547 69.4249 21.8279 69.9379 22.4219 70.3081C23.0081 70.6733 23.6291 70.7799 24.2848 70.6276C24.9405 70.4754 25.4559 70.0982 25.8311 69.4962C26.2062 68.8942 26.3177 68.2654 26.1655 67.6096C26.0132 66.9539 25.644 66.4434 25.0578 66.0781ZM10.7363 60.0639L10.0139 59.0832L15.6499 54.9316L16.3723 55.9123L15.4029 56.6263C16.5066 56.5668 17.4017 57.0029 18.0881 57.9347C18.6693 58.7238 18.8792 59.6067 18.7177 60.5835C18.5487 61.5658 18.0509 62.3614 17.2243 62.9703C16.3977 63.5792 15.494 63.8159 14.5133 63.6805C13.525 63.5507 12.7403 63.0912 12.1591 62.3022C11.4727 61.3704 11.3215 60.3862 11.7057 59.3498L10.7363 60.0639ZM17.0499 58.5082C16.6292 57.9371 16.0861 57.6011 15.4206 57.5001C14.7475 57.4047 14.1254 57.5674 13.5543 57.9881C12.9832 58.4088 12.6471 58.9519 12.5462 59.6174C12.4378 60.2885 12.5939 60.9096 13.0146 61.4807C13.4297 62.0443 13.9738 62.3738 14.6469 62.4692C15.3125 62.5702 15.9308 62.4103 16.5019 61.9896C17.073 61.5689 17.4128 61.023 17.5213 60.3519C17.6222 59.6864 17.4651 59.0718 17.0499 58.5082ZM9.27051 55.1653C8.31421 55.1648 7.61499 54.6859 7.17284 53.7283L8.32948 53.1942C8.55448 53.7483 8.91374 54.1478 9.40725 54.3928C9.90076 54.6378 10.4949 54.5999 11.1898 54.2791L14.558 52.7237L15.0686 53.8295L8.71347 56.7641L8.20284 55.6583L9.27051 55.1653ZM10.6461 50.3376C11.224 50.0696 11.6268 49.6767 11.8544 49.1589C12.0798 48.632 12.1129 48.0469 11.9537 47.4037C11.7318 46.5067 11.2397 45.9362 10.4775 45.6921L10.7994 44.5452C11.9869 44.9533 12.7453 45.8233 13.0749 47.1551C13.3416 48.2333 13.2238 49.1951 12.7215 50.0404C12.2079 50.879 11.4346 51.4261 10.4018 51.6816C9.37797 51.9349 8.44449 51.8149 7.60134 51.3217C6.75819 50.8284 6.20661 50.0563 5.94658 49.0053C5.7 48.0087 5.85272 47.1104 6.40474 46.3104C6.94546 45.5036 7.70959 44.978 8.69715 44.7337C8.86929 44.6911 9.04933 44.6609 9.23726 44.6433L10.6461 50.3376ZM7.06098 48.7296C7.21789 49.3638 7.52911 49.8444 7.99463 50.1715C8.45109 50.5009 8.99063 50.6414 9.61326 50.5931L8.49021 46.054C7.87159 46.3128 7.44511 46.6876 7.21076 47.1782C6.97641 47.6688 6.92648 48.186 7.06098 48.7296ZM12.2762 42.8424C12.2938 43.0938 12.2204 43.3141 12.0559 43.5034C11.8914 43.6927 11.6835 43.7962 11.4321 43.8138C11.1807 43.8314 10.9604 43.758 10.7711 43.5935C10.5818 43.429 10.4783 43.2211 10.4607 42.9697C10.4424 42.709 10.5158 42.4887 10.681 42.3087C10.8455 42.1194 11.0534 42.0159 11.3048 41.9983C11.5562 41.9806 11.7765 42.0541 11.9658 42.2186C12.1545 42.3738 12.2579 42.5817 12.2762 42.8424Z" fill="#FEFEFE"/>
</svg>
