<svg width="183" height="75" viewBox="0 0 183 75" fill="none" xmlns="http://www.w3.org/2000/svg">
<path d="M50.6205 24.8495C50.6205 31.0391 48.6245 36.4095 44.6324 40.9607L49.6457 46.0807L42.822 52.02L37.5302 46.6269C33.7702 48.6749 29.6853 49.6989 25.2754 49.6989C18.2661 49.6989 12.3012 47.3096 7.38071 42.5308C2.46024 37.7066 0 31.8128 0 24.8495C0 17.8862 2.46024 12.0151 7.38071 7.23638C12.3012 2.41213 18.2661 0 25.2754 0C32.2848 0 38.2497 2.41213 43.1702 7.23638C48.1371 12.0151 50.6205 17.8862 50.6205 24.8495ZM25.2754 40.4828C27.0858 40.4828 28.8962 40.1869 30.7065 39.5953L22.6992 31.4032L29.5228 25.4639L38.0872 34.2021C40.0369 31.4714 41.0117 28.3539 41.0117 24.8495C41.0117 20.2983 39.503 16.5436 36.4858 13.5853C33.4685 10.627 29.7317 9.14788 25.2754 9.14788C20.8192 9.14788 17.0824 10.627 14.0651 13.5853C11.0479 16.5436 9.53922 20.2983 9.53922 24.8495C9.53922 29.3551 11.0479 33.0871 14.0651 36.0454C17.0824 39.0036 20.8192 40.4828 25.2754 40.4828Z" fill="#0A0A0A"/>
<path d="M68.5843 49.6989C63.1532 49.6989 58.697 48.197 55.2155 45.1933C51.734 42.1895 49.9933 38.1617 49.9933 33.1099V0.955748H59.5325V32.3589C59.5325 34.8621 60.252 36.8418 61.691 38.2982C63.1765 39.7546 65.4742 40.4828 68.5843 40.4828C71.6944 40.4828 73.969 39.7546 75.408 38.2982C76.8934 36.8418 77.6361 34.8621 77.6361 32.3589V0.955748H87.245V33.1099C87.245 38.1617 85.5043 42.1895 82.0228 45.1933C78.5413 48.197 74.0618 49.6989 68.5843 49.6989Z" fill="#0A0A0A"/>
<path d="M98.5472 39.7318H119.088V48.7432H88.9384V0.955748H118.74V9.96709H98.5472V20.139H116.999V29.0138H98.5472V39.7318Z" fill="#0A0A0A"/>
<path d="M135.539 49.6989C130.712 49.6989 126.65 48.6521 123.354 46.5586C120.059 44.4195 117.738 41.5295 116.391 37.8886L124.608 33.1781C126.511 38.0479 130.248 40.4828 135.818 40.4828C138.51 40.4828 140.483 40.0049 141.736 39.0492C142.99 38.0934 143.616 36.8873 143.616 35.431C143.616 33.747 142.851 32.4499 141.319 31.5397C139.787 30.584 137.048 29.5599 133.102 28.4677C130.921 27.8305 129.064 27.1933 127.532 26.5562C126.047 25.919 124.538 25.077 123.006 24.0302C121.521 22.938 120.383 21.5726 119.594 19.9342C118.805 18.2958 118.411 16.3843 118.411 14.1997C118.411 9.87607 119.966 6.43993 123.076 3.89126C126.232 1.29709 130.016 0 134.425 0C138.371 0 141.829 0.955748 144.8 2.86724C147.817 4.73323 150.162 7.35016 151.833 10.718L143.756 15.292C141.806 11.1959 138.696 9.14788 134.425 9.14788C132.429 9.14788 130.851 9.603 129.691 10.5132C128.577 11.378 128.019 12.5158 128.019 13.9266C128.019 15.4285 128.646 16.6573 129.899 17.6131C131.199 18.5233 133.659 19.5246 137.28 20.6169C138.766 21.072 139.88 21.4361 140.622 21.7091C141.412 21.9367 142.456 22.3236 143.756 22.8697C145.102 23.3703 146.123 23.8482 146.819 24.3033C147.562 24.7584 148.398 25.3728 149.326 26.1465C150.254 26.9202 150.951 27.7167 151.415 28.5359C151.926 29.3551 152.343 30.3564 152.668 31.5397C153.04 32.6775 153.225 33.9291 153.225 35.2944C153.225 39.7091 151.577 43.2135 148.282 45.8077C145.032 48.4018 140.785 49.6989 135.539 49.6989Z" fill="#0A0A0A"/>
<path d="M183 0.955748V9.96709H169.84V48.7432H160.231V9.96709H147.141V0.955748H183Z" fill="#0A0A0A"/>
<path d="M15.2492 67.375C15.9348 67.6971 16.4776 68.1592 16.8775 68.7614C17.2917 69.3635 17.4988 70.0567 17.4988 70.8409C17.4988 72.0172 17.0774 73.0045 16.2347 73.8027C15.392 74.6009 14.3637 75 13.1496 75H6.67945V60.2962H12.6783C13.8495 60.2962 14.8422 60.6813 15.6563 61.4515C16.4704 62.2217 16.8775 63.1739 16.8775 64.3082C16.8775 65.6106 16.3347 66.6328 15.2492 67.375ZM12.6783 62.1236H8.67192V66.6188H12.6783C13.3067 66.6188 13.8352 66.4018 14.2637 65.9677C14.6922 65.5335 14.9064 65.0014 14.9064 64.3712C14.9064 63.7551 14.685 63.2299 14.2423 62.7958C13.8138 62.3477 13.2925 62.1236 12.6783 62.1236ZM13.1496 73.1725C13.8209 73.1725 14.3851 72.9415 14.8422 72.4793C15.2992 72.0172 15.5277 71.4501 15.5277 70.7779C15.5277 70.1197 15.2921 69.5596 14.8207 69.0975C14.3637 68.6353 13.8066 68.4043 13.1496 68.4043H8.67192V73.1725H13.1496Z" fill="#0A0A0A"/>
<path d="M34.058 60.2962L28.7448 69.0555V75H26.7523V69.0344L21.4605 60.2962H23.6886L27.7592 67.186L31.8299 60.2962H34.058Z" fill="#0A0A0A"/>
<path d="M57.1003 62.1447H50.4587V66.9129H56.8218V68.7614H50.4587V75H48.4663V60.2962H57.1003V62.1447Z" fill="#0A0A0A"/>
<path d="M72.0465 75L68.6829 69.3705H65.1478V75H63.1554V60.2962H69.1542C70.4397 60.2962 71.5394 60.7443 72.4536 61.6405C73.3677 62.5228 73.8247 63.594 73.8247 64.8544C73.8247 65.8066 73.5319 66.6748 72.9463 67.459C72.375 68.2432 71.6323 68.7964 70.7182 69.1185L74.2532 75H72.0465ZM65.1478 62.1236V67.6061H69.1542C69.8969 67.6061 70.5254 67.34 71.0395 66.8079C71.568 66.2617 71.8322 65.6106 71.8322 64.8544C71.8322 64.0982 71.568 63.454 71.0395 62.9219C70.5254 62.3897 69.8969 62.1236 69.1542 62.1236H65.1478Z" fill="#0A0A0A"/>
<path d="M89.7715 75L88.5503 71.7021H81.8016L80.5804 75H78.4594L84.0512 60.2962H86.3007L91.8925 75H89.7715ZM82.4872 69.8747H87.8647L85.1653 62.6278L82.4872 69.8747Z" fill="#0A0A0A"/>
<path d="M105.814 60.2962V62.1447H101.379V75H99.4081V62.1447H94.9947V60.2962H105.814Z" fill="#0A0A0A"/>
<path d="M113.421 73.1515H120.383V75H111.428V60.2962H120.276V62.1447H113.421V66.6608H119.741V68.4883H113.421V73.1515Z" fill="#0A0A0A"/>
<path d="M135.322 75L131.959 69.3705H128.423V75H126.431V60.2962H132.43C133.715 60.2962 134.815 60.7443 135.729 61.6405C136.643 62.5228 137.1 63.594 137.1 64.8544C137.1 65.8066 136.808 66.6748 136.222 67.459C135.651 68.2432 134.908 68.7964 133.994 69.1185L137.529 75H135.322ZM128.423 62.1236V67.6061H132.43C133.173 67.6061 133.801 67.34 134.315 66.8079C134.844 66.2617 135.108 65.6106 135.108 64.8544C135.108 64.0982 134.844 63.454 134.315 62.9219C133.801 62.3897 133.173 62.1236 132.43 62.1236H128.423Z" fill="#0A0A0A"/>
<path d="M152.49 60.2962H154.483V75H152.876L145.163 64.0141V75H143.171V60.2962H144.777L152.49 71.261V60.2962Z" fill="#0A0A0A"/>
<path d="M172.495 60.2962L167.182 69.0555V75H165.189V69.0344L159.897 60.2962H162.125L166.196 67.186L170.267 60.2962H172.495Z" fill="#0A0A0A"/>
</svg>
